%
M48
M72
T01C0.0400
T02C0.1260
%
T01
X2172Y1211
X3172Y1211
X4172Y1211
X6885Y2211
X7885Y2211
X8885Y2211
X11688Y2211
X12688Y2211
X13688Y2211
X14688Y2211
X15688Y2211
X15688Y3211
X14688Y3211
X13688Y3211
X12688Y3211
X11688Y3211
X8885Y3211
X7885Y3211
X6885Y3211
X4172Y4211
X3172Y4211
X2172Y4211
T02
X1271Y2758
M30
