G75*
G70*
%OFA0B0*%
%FSLAX24Y24*%
%IPPOS*%
%LPD*%
%AMOC8*
5,1,8,0,0,1.08239X$1,22.5*
%
%ADD10R,0.0740X0.0740*%
%ADD11OC8,0.0740*%
%ADD12C,0.0740*%
%ADD13C,0.0160*%
D10*
X006885Y002211D03*
X011688Y002211D03*
D11*
X012688Y002211D03*
X013688Y002211D03*
X014688Y002211D03*
X015688Y002211D03*
X015688Y003211D03*
X014688Y003211D03*
X013688Y003211D03*
X012688Y003211D03*
X011688Y003211D03*
X008885Y003211D03*
X007885Y003211D03*
X006885Y003211D03*
X007885Y002211D03*
X008885Y002211D03*
D12*
X002172Y001211D03*
X003172Y001211D03*
X004172Y001211D03*
X004172Y004211D03*
X003172Y004211D03*
X002172Y004211D03*
D13*
X003172Y003211D01*
X006885Y003211D01*
X007885Y004211D02*
X008885Y003211D01*
X009495Y003821D01*
X012019Y003821D01*
X012629Y003211D01*
X012688Y003211D01*
X013688Y003211D01*
X014688Y003211D01*
X015688Y003211D01*
X013688Y002211D02*
X013688Y002184D01*
X012727Y001223D01*
X009873Y001223D01*
X008885Y002211D01*
X007885Y001211D01*
X004172Y001211D01*
X003172Y002211D02*
X002172Y001211D01*
X003172Y002211D02*
X006885Y002211D01*
X007885Y004211D02*
X004172Y004211D01*
M02*
