G75*
G70*
%OFA0B0*%
%FSLAX24Y24*%
%IPPOS*%
%LPD*%
%AMOC8*
5,1,8,0,0,1.08239X$1,22.5*
%
%ADD10R,0.0740X0.0740*%
%ADD11OC8,0.0740*%
%ADD12C,0.0740*%
%ADD13C,0.0160*%
D10*
X006885Y002211D03*
X011688Y002211D03*
D11*
X012688Y002211D03*
X013688Y002211D03*
X014688Y002211D03*
X015688Y002211D03*
X015688Y003211D03*
X014688Y003211D03*
X013688Y003211D03*
X012688Y003211D03*
X011688Y003211D03*
X008885Y003211D03*
X007885Y003211D03*
X006885Y003211D03*
X007885Y002211D03*
X008885Y002211D03*
D12*
X004172Y001211D03*
X003172Y001211D03*
X002172Y001211D03*
X002172Y004211D03*
X003172Y004211D03*
X004172Y004211D03*
D13*
X002172Y001211D02*
X002830Y000554D01*
X014026Y000554D01*
X015684Y002211D01*
X015688Y002211D01*
X014688Y002211D02*
X013700Y001223D01*
X008869Y001223D01*
X007885Y002207D01*
X007885Y002211D01*
X007885Y002207D02*
X006900Y001223D01*
X005562Y001223D01*
X004774Y002010D01*
X003971Y002010D01*
X003172Y001211D01*
X006900Y004215D02*
X007885Y003231D01*
X008869Y004215D01*
X009696Y004215D01*
X011664Y002235D01*
X011688Y002211D01*
X011688Y003211D02*
X011684Y003211D01*
X010089Y004845D01*
X002806Y004845D01*
X002172Y004211D01*
X003172Y004211D02*
X003995Y003388D01*
X004656Y003388D01*
X005483Y004215D01*
X006900Y004215D01*
X007885Y003231D02*
X007885Y003211D01*
M02*
